<svg width="175" height="97" viewBox="0 0 175 97" fill="none" xmlns="http://www.w3.org/2000/svg">
<g clip-path="url(#clip0_244_2)">
<path d="M107.639 22.2261C107.639 10.8657 98.5679 1.6721 87.2728 1.6721C75.9776 1.67212 66.9066 10.8657 66.9065 22.2261V44.5415L107.639 44.7342V22.2261ZM109.311 45.5746C109.311 45.797 109.223 46.0105 109.065 46.1674C108.907 46.3243 108.693 46.4117 108.471 46.4107L66.0666 46.2098C65.6065 46.2077 65.2344 45.834 65.2344 45.3738V22.2261C65.2345 9.95904 75.0374 1.17179e-05 87.2728 0C99.5081 0 109.311 9.95903 109.311 22.2261V45.5746Z" fill="#4D5531"/>
<path d="M87.465 45.978C87.125 43.6361 86.9429 41.2942 86.8089 38.9503C86.6829 36.6085 86.6168 34.2646 86.6068 31.9207C86.5968 29.5768 86.6409 27.235 86.7489 24.8911C86.8629 22.5472 87.0249 20.2033 87.349 17.8594C87.691 20.2013 87.8729 22.5432 88.007 24.8871C88.133 27.2289 88.1991 29.5728 88.2071 31.9167C88.2151 34.2606 88.171 36.6024 88.063 38.9463C87.9489 41.2902 87.787 43.6341 87.465 45.978Z" fill="#4D5531"/>
<path d="M87.6641 46.0204C87.5481 45.0764 87.5401 44.1244 87.5581 43.1724C87.5901 42.2224 87.6641 41.2704 87.8021 40.3244C88.0681 38.4344 88.5362 36.5565 89.2883 34.777C90.0284 32.9975 91.0765 31.3124 92.4706 29.9527C93.1707 29.2778 93.9588 28.6994 94.7989 28.2294C95.655 27.7835 96.5611 27.4582 97.4872 27.2734C96.6271 27.6731 95.807 28.1069 95.0589 28.6492C94.3148 29.1955 93.6448 29.8181 93.0347 30.495C91.8406 31.8768 90.9145 33.4715 90.2104 35.1687C89.4903 36.8618 88.9822 38.6493 88.5682 40.465C88.1702 42.2847 87.8701 44.1365 87.6641 46.0204Z" fill="#4D5531"/>
<path d="M87.2604 45.8053C87.0384 43.9233 86.7242 42.0756 86.3102 40.2579C85.8822 38.4463 85.3582 36.6607 84.6241 34.9756C83.904 33.2845 82.9658 31.6978 81.7617 30.326C81.1456 29.6532 80.4696 29.0366 79.7215 28.4963C78.9694 27.9621 78.1453 27.5323 77.2812 27.1406C78.2093 27.3194 79.1175 27.6367 79.9776 28.0745C80.8217 28.5365 81.6138 29.1089 82.3199 29.7777C83.724 31.1254 84.7881 32.8025 85.5422 34.5759C86.3083 36.3494 86.7923 38.2233 87.0743 40.1113C87.2203 41.0553 87.3024 42.0073 87.3424 42.9573C87.3704 43.9073 87.3704 44.8593 87.2604 45.8053Z" fill="#4D5531"/>
<path d="M105.251 9.70312C103.369 12.5148 100.678 14.8314 97.5901 16.4227C94.4976 18.0139 90.9921 18.8567 87.4867 18.8705C83.9812 18.8867 80.4688 18.0738 77.3623 16.5056C74.2605 14.9397 71.5508 12.6438 69.6484 9.84589C72.1377 12.1326 74.9356 13.9679 77.9701 15.1884C80.9977 16.4181 84.2364 17.0375 87.4774 17.0283C90.7207 17.0145 93.9547 16.3697 96.9707 15.1147C100.001 13.8712 102.783 12.0105 105.251 9.70312Z" fill="#4D5531"/>
<path d="M87.3633 45.7778C88.2654 43.1528 89.8116 40.7165 91.8358 38.7261C92.8499 37.7359 93.9901 36.8502 95.2222 36.1272C95.8383 35.7697 96.4683 35.4403 97.1004 35.143C97.7325 34.8417 98.3645 34.5706 98.9786 34.2854C99.5987 34.0122 100.188 33.719 100.767 33.4097C101.333 33.0884 101.889 32.755 102.399 32.3593C102.665 32.1765 102.907 31.9576 103.155 31.7507C103.405 31.5438 103.639 31.3169 103.869 31.0879C104.327 30.626 104.755 30.1299 105.151 29.6037C105.547 29.0774 105.913 28.5251 106.245 27.9467C106.333 27.8041 106.415 27.6595 106.491 27.5108C106.569 27.3622 106.651 27.2176 106.727 27.067C106.871 26.7637 107.025 26.4644 107.157 26.1531C107.721 24.9219 108.159 23.6225 108.567 22.2969C108.509 23.6847 108.271 25.0665 107.895 26.4243C107.503 27.776 106.953 29.1036 106.187 30.3207C105.431 31.5438 104.459 32.6465 103.329 33.5644C103.187 33.6788 103.047 33.7953 102.901 33.9038L102.453 34.2151C102.305 34.3216 102.153 34.42 101.997 34.5124L101.535 34.7956C100.907 35.143 100.268 35.4664 99.6347 35.7516C98.3605 36.322 97.1264 36.8321 95.9583 37.4548C94.7921 38.0754 93.702 38.8225 92.6699 39.6641C90.6077 41.3512 88.8655 43.452 87.3633 45.7778Z" fill="#4D5531"/>
<path d="M87.6619 45.7791C86.1418 43.4653 84.3836 41.3784 82.3014 39.7074C81.2612 38.8738 80.1651 38.1367 78.995 37.5242C77.8229 36.9096 76.5847 36.4115 75.3066 35.8511C74.6705 35.5719 74.0285 35.2546 73.3984 34.9111L72.9343 34.6321C72.7783 34.5417 72.6263 34.4453 72.4763 34.3388L72.0262 34.0295C71.8782 33.9231 71.7382 33.8065 71.5962 33.694C70.4601 32.7862 69.478 31.6916 68.7119 30.4744C67.9358 29.2633 67.3737 27.9397 66.9717 26.5921C66.5836 25.2364 66.3336 23.8565 66.2656 22.4688C66.6836 23.7924 67.1317 25.0877 67.7078 26.3149C67.8418 26.6242 67.9978 26.9236 68.1458 27.2248C68.2218 27.3735 68.3058 27.52 68.3858 27.6666C68.4638 27.8152 68.5479 27.9599 68.6359 28.1005C68.9719 28.677 69.3439 29.2272 69.744 29.7494C70.144 30.2716 70.5761 30.7657 71.0381 31.2236C71.2722 31.4506 71.5082 31.6755 71.7582 31.8804C72.0082 32.0852 72.2523 32.3022 72.5203 32.483C73.0323 32.8747 73.5944 33.2039 74.1625 33.5213C74.7425 33.8266 75.3346 34.1138 75.9567 34.3829C76.5727 34.6621 77.2068 34.9293 77.8429 35.2246C78.4769 35.5178 79.111 35.8411 79.7291 36.1925C80.9652 36.9055 82.1133 37.7812 83.1354 38.7634C85.1737 40.7377 86.7398 43.162 87.6619 45.7791Z" fill="#4D5531"/>
<path d="M56.1561 67.4648C56.2338 67.8423 56.4135 68.1615 56.6953 68.4222C56.9867 68.6739 57.3656 68.7998 57.8319 68.7998C58.1913 68.7998 58.4877 68.7413 58.7208 68.6245C58.954 68.4986 59.1386 68.3323 59.2746 68.1255C59.4203 67.9187 59.5174 67.685 59.566 67.4243C59.6243 67.1546 59.6534 66.8759 59.6534 66.5883V59.8594H60.7026V66.6557C60.7026 66.9703 60.6638 67.3029 60.5861 67.6535C60.5181 68.0042 60.3821 68.3278 60.178 68.6245C59.974 68.9211 59.6923 69.1683 59.3328 69.3661C58.9734 69.5549 58.5119 69.6493 57.9485 69.6493C57.2004 69.6493 56.5835 69.4695 56.0978 69.1099C55.612 68.7413 55.306 68.2738 55.1797 67.7075L56.1561 67.4648Z" fill="#4D5531"/>
<path d="M63.9871 69.4066H62.8359L67.2951 59.8594H68.3151L72.7451 69.4066H71.5793L70.4427 66.8984H65.1092L63.9871 69.4066ZM65.5027 66.0084H70.0492L67.7759 60.9382L65.5027 66.0084Z" fill="#4D5531"/>
<path d="M76.1859 69.4066H75.1367V59.8594H78.1677C78.6729 59.8594 79.1392 59.9043 79.5667 59.9942C80.0039 60.0841 80.3779 60.2325 80.6888 60.4392C81.0094 60.637 81.2571 60.8977 81.4319 61.2213C81.6068 61.545 81.6942 61.9405 81.6942 62.408C81.6942 62.7586 81.6262 63.0777 81.4902 63.3654C81.3542 63.6531 81.1696 63.9048 80.9365 64.1206C80.7033 64.3273 80.4265 64.4936 80.1059 64.6195C79.7853 64.7453 79.4355 64.8263 79.0567 64.8622L82.0731 69.4066H80.7908L77.9346 64.9431H76.1859V69.4066ZM76.1859 64.1071H78.0075C78.8527 64.1071 79.5035 63.9677 79.9601 63.689C80.4167 63.4014 80.645 62.9744 80.645 62.408C80.645 62.0934 80.5819 61.8282 80.4556 61.6124C80.3293 61.3966 80.1544 61.2213 79.931 61.0865C79.7075 60.9517 79.4355 60.8528 79.1149 60.7898C78.7944 60.7269 78.4398 60.6954 78.0512 60.6954H76.1859V64.1071Z" fill="#4D5531"/>
<path d="M84.7383 59.8594H88.1628C88.804 59.8594 89.4452 59.9583 90.0863 60.1561C90.7372 60.3538 91.3201 60.655 91.835 61.0595C92.3596 61.4551 92.7822 61.954 93.1028 62.5563C93.4234 63.1497 93.5837 63.8419 93.5837 64.633C93.5837 65.4331 93.4234 66.1298 93.1028 66.7231C92.7822 67.3164 92.3596 67.8154 91.835 68.2199C91.3201 68.6155 90.7372 68.9121 90.0863 69.1099C89.4452 69.3077 88.804 69.4066 88.1628 69.4066H84.7383V59.8594ZM85.7875 68.5435H87.8714C88.6485 68.5435 89.3237 68.4312 89.8969 68.2064C90.4798 67.9817 90.9607 67.6895 91.3396 67.3299C91.7185 66.9613 92.0002 66.5433 92.1848 66.0758C92.3791 65.6084 92.4762 65.1274 92.4762 64.633C92.4762 64.1385 92.3791 63.6576 92.1848 63.1901C92.0002 62.7226 91.7185 62.3091 91.3396 61.9495C90.9607 61.5809 90.4798 61.2843 89.8969 61.0595C89.3237 60.8348 88.6485 60.7224 87.8714 60.7224H85.7875V68.5435Z" fill="#4D5531"/>
<path d="M97.6898 69.4066H96.6406V59.8594H97.6898V69.4066Z" fill="#4D5531"/>
<path d="M108.617 67.9907H108.646V59.8594H109.695V69.4066H108.383L102.38 61.1944H102.351V69.4066H101.301V59.8594H102.613L108.617 67.9907Z" fill="#4D5531"/>
<path d="M118.299 61.3971C118.076 61.1095 117.789 60.8802 117.44 60.7094C117.09 60.5296 116.667 60.4397 116.172 60.4397C115.919 60.4397 115.662 60.4757 115.4 60.5476C115.137 60.6195 114.899 60.7319 114.685 60.8847C114.472 61.0286 114.297 61.2129 114.161 61.4376C114.035 61.6623 113.971 61.9275 113.971 62.2332C113.971 62.5388 114.035 62.7906 114.161 62.9883C114.287 63.1861 114.452 63.3569 114.656 63.5008C114.87 63.6356 115.108 63.748 115.37 63.8379C115.642 63.9278 115.924 64.0177 116.216 64.1076C116.575 64.2155 116.934 64.3323 117.294 64.4582C117.663 64.584 117.993 64.7503 118.285 64.9571C118.576 65.1549 118.814 65.4111 118.999 65.7257C119.183 66.0314 119.276 66.4224 119.276 66.8989C119.276 67.3754 119.174 67.7889 118.97 68.1395C118.775 68.4811 118.518 68.7643 118.197 68.989C117.887 69.2138 117.527 69.3801 117.119 69.488C116.721 69.5959 116.318 69.6498 115.91 69.6498C115.599 69.6498 115.288 69.6183 114.977 69.5554C114.666 69.5015 114.37 69.416 114.088 69.2992C113.806 69.1823 113.544 69.034 113.301 68.8542C113.058 68.6744 112.845 68.4676 112.66 68.2339L113.563 67.6136C113.787 67.9552 114.098 68.2429 114.496 68.4766C114.904 68.7014 115.38 68.8137 115.924 68.8137C116.186 68.8137 116.454 68.7778 116.726 68.7059C116.998 68.625 117.241 68.5081 117.454 68.3553C117.678 68.1934 117.857 68.0002 117.993 67.7754C118.139 67.5417 118.212 67.272 118.212 66.9663C118.212 66.6337 118.139 66.3595 117.993 66.1438C117.857 65.919 117.673 65.7347 117.44 65.5909C117.207 65.4381 116.939 65.3122 116.638 65.2133C116.337 65.1144 116.021 65.0155 115.691 64.9167C115.351 64.8178 115.016 64.7054 114.685 64.5795C114.355 64.4537 114.059 64.2919 113.797 64.0941C113.534 63.8873 113.321 63.6356 113.155 63.3389C113 63.0423 112.922 62.6782 112.922 62.2467C112.922 61.7882 113.019 61.3927 113.214 61.06C113.418 60.7274 113.68 60.4532 114.001 60.2375C114.321 60.0217 114.676 59.8644 115.064 59.7655C115.453 59.6666 115.837 59.6172 116.216 59.6172C116.915 59.6172 117.513 59.734 118.008 59.9678C118.503 60.1925 118.877 60.4622 119.13 60.7769L118.299 61.3971Z" fill="#4D5531"/>
<path d="M6.94032 96.5526H5.32316V82.079H0V80.6406H12.2635V82.079H6.94032V96.5526Z" fill="#4D5531"/>
<path d="M39.5759 88.6027C39.5759 89.8163 39.3663 90.9326 38.947 91.9514C38.5278 92.9702 37.9438 93.8542 37.1951 94.6034C36.4614 95.3376 35.5854 95.9144 34.5672 96.3339C33.564 96.7535 32.4709 96.9632 31.288 96.9632C30.105 96.9632 29.0045 96.7535 27.9863 96.3339C26.983 95.9144 26.1071 95.3376 25.3584 94.6034C24.6247 93.8542 24.0482 92.9702 23.6289 91.9514C23.2096 90.9326 23 89.8163 23 88.6027C23 87.3891 23.2096 86.2728 23.6289 85.254C24.0482 84.2352 24.6247 83.3586 25.3584 82.6245C26.1071 81.8753 26.983 81.291 27.9863 80.8715C29.0045 80.4519 30.105 80.2422 31.288 80.2422C32.4709 80.2422 33.564 80.4519 34.5672 80.8715C35.5854 81.291 36.4614 81.8753 37.1951 82.6245C37.9438 83.3586 38.5278 84.2352 38.947 85.254C39.3663 86.2728 39.5759 87.3891 39.5759 88.6027ZM37.8689 88.6027C37.8689 87.6738 37.7192 86.7898 37.4197 85.9507C37.1202 85.1117 36.686 84.3775 36.117 83.7482C35.548 83.1039 34.8517 82.5945 34.0282 82.2199C33.2196 81.8454 32.3062 81.6581 31.288 81.6581C30.2697 81.6581 29.3489 81.8454 28.5253 82.2199C27.7167 82.5945 27.0279 83.1039 26.4589 83.7482C25.8899 84.3775 25.4557 85.1117 25.1562 85.9507C24.8568 86.7898 24.707 87.6738 24.707 88.6027C24.707 89.5317 24.8568 90.4156 25.1562 91.2547C25.4557 92.0937 25.8899 92.8279 26.4589 93.4572C27.0279 94.0865 27.7167 94.5884 28.5253 94.963C29.3489 95.3376 30.2697 95.5249 31.288 95.5249C32.3062 95.5249 33.2196 95.3376 34.0282 94.963C34.8517 94.5884 35.548 94.0865 36.117 93.4572C36.686 92.8279 37.1202 92.0937 37.4197 91.2547C37.7192 90.4156 37.8689 89.5317 37.8689 88.6027Z" fill="#4D5531"/>
<path d="M58.6826 96.9571C57.4847 96.9571 56.5039 96.7548 55.7403 96.3503C54.9766 95.9308 54.3702 95.4064 53.921 94.7771C53.4717 94.1478 53.1573 93.4661 52.9776 92.7319C52.8129 91.9828 52.7305 91.2786 52.7305 90.6193V80.6406H54.3477V90.4395C54.3477 91.0838 54.4226 91.7131 54.5723 92.3274C54.722 92.9267 54.9616 93.4661 55.291 93.9455C55.6354 94.41 56.0847 94.7921 56.6387 95.0917C57.1927 95.3764 57.874 95.5188 58.6826 95.5188C59.4912 95.5188 60.1725 95.3764 60.7265 95.0917C61.2805 94.7921 61.7223 94.41 62.0517 93.9455C62.3961 93.4661 62.6431 92.9267 62.7929 92.3274C62.9426 91.7131 63.0175 91.0838 63.0175 90.4395V80.6406H64.6346V90.6193C64.6346 91.2786 64.5448 91.9828 64.3651 92.7319C64.2004 93.4661 63.8934 94.1478 63.4442 94.7771C62.995 95.4064 62.3811 95.9308 61.6025 96.3503C60.8388 96.7548 59.8655 96.9571 58.6826 96.9571Z" fill="#4D5531"/>
<path d="M86.5096 93.8107H86.532L91.8552 80.6406H94.3258V96.5526H92.7087V82.7307H92.6638L86.9139 96.5526H86.0604L80.3104 82.7307H80.2655V96.5526H78.6484V80.6406H81.119L86.5096 93.8107Z" fill="#4D5531"/>
<path d="M108.314 96.5526H106.539L113.412 80.6406H114.985L121.813 96.5526H120.016L118.264 92.3723H110.043L108.314 96.5526ZM110.65 90.889H117.657L114.154 82.4386L110.65 90.889Z" fill="#4D5531"/>
<path d="M145.31 94.1928H145.355V80.6406H146.972V96.5526H144.95L135.697 82.8656H135.652V96.5526H134.035V80.6406H136.056L145.31 94.1928Z" fill="#4D5531"/>
<path d="M160.958 96.5526H159.184L166.057 80.6406H167.629L174.457 96.5526H172.66L170.908 92.3723H162.688L160.958 96.5526ZM163.294 90.889H170.302L166.798 82.4386L163.294 90.889Z" fill="#4D5531"/>
</g>
<defs>
<clipPath id="clip0_244_2">
<rect width="175" height="97" fill="white"/>
</clipPath>
</defs>
</svg>
