<svg width="240" height="61" viewBox="0 0 240 61" fill="none" xmlns="http://www.w3.org/2000/svg">
<path fill-rule="evenodd" clip-rule="evenodd" d="M28.2815 1.11687C13.1991 1.11687 1.09884 13.6615 1.09884 29.1425V59.5021L55.4642 59.7652V29.1425C55.4642 13.6615 43.3639 1.11687 28.2815 1.11687ZM0.392799 29.1425C0.392799 13.2664 12.8045 0.392799 28.2815 0.392799C43.7585 0.392799 56.1702 13.2664 56.1702 29.1425V60.129C56.1702 60.2253 56.1328 60.3176 56.0662 60.3856C55.9997 60.4535 55.9094 60.4914 55.8155 60.491L0.744154 60.2244C0.549838 60.2235 0.392799 60.0617 0.392799 59.8624V29.1425Z" fill="#515839"/>
<path d="M55.7774 60.0011C55.7663 60.0159 55.7546 60.0305 55.7414 60.0437C55.7206 60.0644 55.6975 60.0821 55.6731 60.0974L55.7774 60.0978V60.0011ZM0.785597 59.8316L0.886866 59.832C0.847832 59.8069 0.813508 59.7753 0.785597 59.7384V59.8316ZM55.0712 29.1423C55.0711 13.8663 43.1351 1.50982 28.2815 1.50982C13.4279 1.50982 1.49188 13.8663 1.49179 29.1423V59.1108L55.0712 59.3705V29.1423ZM56.563 60.1289C56.563 60.3265 56.4862 60.5182 56.3467 60.6605C56.2068 60.8032 56.0151 60.8848 55.8135 60.8838L0.742251 60.6172C0.32253 60.6152 0 60.2684 0 59.8623V29.1423C9.19366e-05 13.0615 12.5757 5.97108e-07 28.2815 0C43.9873 0 56.5629 13.0615 56.563 29.1423V60.1289Z" fill="#515839"/>
<path d="M28.76 60.491C28.2599 57.4485 27.9922 54.4061 27.7951 51.361C27.6097 48.3186 27.5126 45.2735 27.4979 42.2285C27.4832 39.1834 27.5479 36.141 27.7068 33.0959C27.8745 30.0508 28.1128 27.0058 28.5893 23.9607C29.0924 27.0032 29.3601 30.0456 29.5572 33.0907C29.7425 36.1331 29.8396 39.1782 29.8513 42.2232C29.8631 45.2683 29.7984 48.3108 29.6395 51.3558C29.4719 54.4009 29.2336 57.4459 28.76 60.491Z" fill="#515839"/>
<path d="M28.5893 23.9607C29.0924 27.0032 29.3601 30.0456 29.5572 33.0907C29.7425 36.1331 29.8396 39.1782 29.8513 42.2232C29.8631 45.2683 29.7984 48.3108 29.6395 51.3558C29.4719 54.4009 29.2336 57.4459 28.76 60.491C28.3223 57.8288 28.0627 55.1666 27.8726 52.5027L27.7951 51.361C27.6329 48.6989 27.5384 46.0348 27.5074 43.3705L27.4979 42.2285C27.4851 39.564 27.533 36.9015 27.6517 34.2375L27.7068 33.0959C27.8745 30.0508 28.1128 27.0058 28.5893 23.9607ZM28.6018 26.8208C28.364 28.9163 28.2147 31.0145 28.0989 33.1175C27.9405 36.1541 27.876 39.1888 27.8906 42.2266C27.9053 45.2641 28.0023 48.3014 28.1872 51.3358L28.2643 52.4751C28.3868 54.1915 28.5379 55.9044 28.7468 57.6152C28.9827 55.5249 29.1319 53.4319 29.2474 51.3343C29.4058 48.2976 29.4702 45.2628 29.4584 42.2247C29.4467 39.187 29.3498 36.1492 29.165 33.1144C29.0288 31.0117 28.859 28.9145 28.6018 26.8208Z" fill="#515839"/>
<path d="M28.8132 60.491C28.671 59.2449 28.6612 57.9883 28.6833 56.7316C28.7225 55.4776 28.8132 54.2209 28.9824 52.9722C29.3084 50.4774 29.8819 47.9985 30.8036 45.6496C31.7105 43.3006 32.995 41.0762 34.7035 39.2814C35.5614 38.3906 36.5271 37.627 37.5566 37.0066C38.6058 36.4181 39.7162 35.9886 40.8511 35.7447C39.797 36.2723 38.792 36.8449 37.8753 37.5607C36.9635 38.2819 36.1423 39.1037 35.3947 39.9972C33.9313 41.8212 32.7964 43.9263 31.9336 46.1666C31.0512 48.4015 30.4286 50.7611 29.9212 53.1578C29.4334 55.5598 29.0657 58.0042 28.8132 60.491Z" fill="#515839"/>
<path d="M40.8511 35.7447C39.797 36.2723 38.792 36.8449 37.8753 37.5607C36.9635 38.2819 36.1423 39.1037 35.3947 39.9972C33.9313 41.8212 32.7964 43.9263 31.9336 46.1666L31.771 46.5869C30.9737 48.6965 30.3969 50.9109 29.9212 53.1578C29.4334 55.5598 29.0657 58.0042 28.8132 60.491C28.671 59.2449 28.6612 57.9883 28.6833 56.7316C28.7225 55.4776 28.8132 54.2209 28.9824 52.9722C29.3084 50.4774 29.8819 47.9985 30.8036 45.6496C31.6822 43.3741 32.915 41.2154 34.5444 39.4509L34.7035 39.2814C35.5077 38.4463 36.4067 37.7228 37.3642 37.1245L37.5566 37.0066C38.6058 36.4181 39.7162 35.9886 40.8511 35.7447ZM36.6968 38.0535C36.092 38.5003 35.5182 39.0009 34.9875 39.5518L34.9879 39.5522C33.3225 41.3018 32.0627 43.4787 31.17 45.791L31.1692 45.7929C30.2615 48.1063 29.6944 50.5534 29.3717 53.0232V53.0247C29.2798 53.7029 29.2118 54.3843 29.1622 55.067C29.2782 54.4014 29.4023 53.7389 29.5362 53.0796L29.537 53.0765C30.0468 50.6684 30.6746 48.2854 31.5681 46.0223C32.4424 43.7531 33.5956 41.6119 35.0884 39.7513L35.0907 39.7482L35.0933 39.7452C35.5927 39.1484 36.1256 38.5816 36.6968 38.0535Z" fill="#515839"/>
<path d="M28.1559 60.0982C27.8703 57.6031 27.4663 55.1532 26.9337 52.7433C26.3831 50.3413 25.709 47.974 24.7647 45.7398C23.8384 43.4977 22.6316 41.394 21.0827 39.5752C20.2902 38.6832 19.4205 37.8657 18.4582 37.1493C17.4908 36.441 16.4307 35.8711 15.3191 35.3519C16.513 35.5889 17.6812 36.0096 18.7876 36.5901C19.8734 37.2026 20.8923 37.9615 21.8006 38.8483C23.6068 40.6351 24.9757 42.8586 25.9457 45.2099C26.9311 47.5613 27.5538 50.0458 27.9166 52.5489C28.1044 53.8004 28.2099 55.0627 28.2614 56.3222C28.2974 57.5818 28.2974 58.844 28.1559 60.0982Z" fill="#515839"/>
<path d="M15.3191 35.3519C16.513 35.5889 17.6812 36.0096 18.7876 36.5901C19.8734 37.2026 20.8923 37.9615 21.8006 38.8483C23.6068 40.6351 24.9757 42.8586 25.9457 45.2099C26.9311 47.5613 27.5538 50.0458 27.9166 52.5489C28.1044 53.8004 28.2099 55.0627 28.2614 56.3222C28.2974 57.5818 28.2974 58.844 28.1559 60.0982C27.8703 57.6031 27.4663 55.1532 26.9337 52.7433C26.4175 50.4915 25.7926 48.2701 24.9385 46.1604L24.7647 45.7398C23.8384 43.4977 22.6316 41.394 21.0827 39.5752C20.2902 38.6832 19.4205 37.8657 18.4582 37.1493C17.4908 36.441 16.4307 35.8711 15.3191 35.3519ZM19.5743 37.5387C20.1015 37.9898 20.599 38.4709 21.0696 38.9768L21.3765 39.3144L21.3818 39.3205C22.9616 41.1754 24.1877 43.3153 25.1265 45.5869C26.0232 47.7085 26.6771 49.943 27.2113 52.2031L27.3168 52.6553L27.3172 52.6584C27.4886 53.4342 27.6464 54.2143 27.7917 54.9983C27.7321 54.1981 27.6471 53.3998 27.5281 52.607L27.5277 52.6051C27.1687 50.1281 26.5536 47.6768 25.5833 45.3617L25.5825 45.3598C24.6286 43.0474 23.2868 40.8719 21.5261 39.1295L21.3592 38.9692C20.8015 38.4425 20.2032 37.9642 19.5743 37.5387Z" fill="#515839"/>
<path d="M51.4566 12.1768C49.0071 16.1523 45.5035 19.4278 41.4834 21.6777C37.4573 23.9276 32.8936 25.1192 28.3298 25.1388C23.7661 25.1616 19.1933 24.0122 15.149 21.7949C11.1108 19.5808 7.58307 16.3346 5.10638 12.3786C8.34721 15.6118 11.9898 18.2068 15.9404 19.9325C19.8819 21.6712 24.0983 22.547 28.3177 22.534C32.5402 22.5145 36.7506 21.6028 40.677 19.8283C44.6216 18.0701 48.243 15.4392 51.4566 12.1768Z" fill="#515839"/>
<path d="M51.4566 12.1768C49.0071 16.1523 45.5035 19.4278 41.4834 21.6777L41.1046 21.8855C37.1722 24.001 32.751 25.1199 28.3298 25.1388C23.9087 25.1609 19.4791 24.0831 15.5297 21.9998L15.149 21.7949C11.1108 19.5808 7.58307 16.3346 5.10638 12.3786C8.34721 15.6118 11.9898 18.2068 15.9404 19.9325C19.7587 21.6168 23.835 22.4915 27.9221 22.5326L28.3177 22.534C32.5402 22.5145 36.7506 21.6028 40.677 19.8283C44.6216 18.0701 48.243 15.4392 51.4566 12.1768ZM48.8118 15.1504C46.3426 17.2129 43.675 18.9212 40.8384 20.1858L40.8388 20.1862C36.8623 21.9833 32.5973 22.9072 28.3195 22.927C24.0448 22.9402 19.7734 22.0529 15.7818 20.2921C12.9321 19.0471 10.2446 17.3568 7.7524 15.3088C9.89113 17.7994 12.4848 19.8862 15.3379 21.4505C19.3235 23.6357 23.8307 24.7684 28.3279 24.746C32.8252 24.7267 37.3239 23.5521 41.2918 21.3347C44.1237 19.7497 46.6944 17.6487 48.8118 15.1504Z" fill="#515839"/>
<path d="M28.2815 60.0982C29.468 56.6291 31.5016 53.4094 34.1639 50.779C35.4977 49.4705 36.9972 48.3 38.6178 47.3444C39.428 46.872 40.2567 46.4367 41.0881 46.0438C41.9194 45.6457 42.7507 45.2874 43.5583 44.9104C44.3739 44.5495 45.1499 44.1619 45.9102 43.7532C46.6547 43.3285 47.3861 42.8879 48.0569 42.365C48.4068 42.1235 48.7252 41.8342 49.0514 41.5608C49.3802 41.2874 49.688 40.9874 49.9905 40.6849C50.593 40.0744 51.156 39.4188 51.6769 38.7233C52.1978 38.0279 52.6792 37.298 53.1159 36.5336C53.2316 36.3451 53.3395 36.154 53.4395 35.9576C53.5421 35.7612 53.6499 35.5701 53.7499 35.371C53.9393 34.9702 54.1419 34.5747 54.3155 34.1633C55.0574 32.5362 55.6335 30.8189 56.1702 29.0671C56.0939 30.9012 55.7809 32.7273 55.2863 34.5216C54.7706 36.308 54.0472 38.0624 53.0396 39.6709C52.0452 41.2874 50.7666 42.7446 49.2802 43.9576C49.0935 44.1089 48.9093 44.2628 48.7173 44.4061L48.128 44.8176C47.9333 44.9582 47.7334 45.0883 47.5282 45.2104L46.9205 45.5846C46.0944 46.0438 45.2552 46.4712 44.4212 46.8481C42.7454 47.6019 41.1222 48.2761 39.5859 49.0989C38.0522 49.9191 36.6184 50.9064 35.2609 52.0186C32.5486 54.2482 30.2572 57.0245 28.2815 60.0982Z" fill="#515839"/>
<path d="M56.1702 29.0671C56.0939 30.9012 55.7809 32.7273 55.2863 34.5216L55.1871 34.8563C54.679 36.5267 53.9841 38.163 53.0396 39.6709C52.0452 41.2874 50.7666 42.7446 49.2802 43.9576C49.0935 44.1089 48.9093 44.2628 48.7173 44.4061L48.128 44.8176C47.9333 44.9582 47.7334 45.0883 47.5282 45.2104L46.9205 45.5846C46.0944 46.0438 45.2552 46.4712 44.4212 46.8481L43.1749 47.4021C41.9393 47.9483 40.7382 48.4818 39.5859 49.0989L39.2994 49.2548C37.8732 50.0431 36.5335 50.976 35.2609 52.0186C32.5486 54.2482 30.2572 57.0245 28.2815 60.0982C29.468 56.6291 31.5016 53.4094 34.1639 50.779C35.4977 49.4705 36.9972 48.3 38.6178 47.3444C39.428 46.872 40.2567 46.4367 41.0881 46.0438C41.7115 45.7452 42.3351 45.4691 42.9485 45.1906L43.5583 44.9104C44.3739 44.5495 45.1499 44.1619 45.9102 43.7532C46.5617 43.3816 47.203 42.9977 47.8025 42.5573L48.0569 42.365C48.2319 42.2442 48.3991 42.1117 48.5632 41.975L49.0514 41.5608C49.3802 41.2874 49.688 40.9874 49.9905 40.6849C50.593 40.0744 51.156 39.4188 51.6769 38.7233C52.1326 38.1149 52.5581 37.48 52.95 36.8187L53.1159 36.5336C53.2316 36.3451 53.3395 36.154 53.4395 35.9576C53.5421 35.7612 53.6499 35.5701 53.7499 35.371C53.892 35.0704 54.0414 34.7728 54.1805 34.4692L54.3155 34.1633C55.0574 32.5362 55.6335 30.8189 56.1702 29.0671ZM55.2818 32.8831C55.0907 33.3701 54.8893 33.8518 54.673 34.3262C54.4962 34.7439 54.2856 35.1564 54.1049 35.5387L54.1011 35.5471C54.0021 35.7443 53.8816 35.959 53.7892 36.1356C53.6861 36.3383 53.575 36.535 53.4567 36.7282C53.0117 37.5071 52.5217 38.2508 51.9914 38.9588C51.4601 39.6681 50.8854 40.3373 50.2702 40.9608L50.2683 40.9627C49.9645 41.2665 49.6459 41.5774 49.3024 41.863L49.302 41.8626C48.996 42.1191 48.657 42.4259 48.2924 42.6793C47.6 43.2182 46.8506 43.6689 46.1047 44.0943L46.1005 44.0966L46.0963 44.0993C45.329 44.5119 44.5437 44.9039 43.7173 45.2697L43.7169 45.2693C42.8907 45.6547 42.0913 45.999 41.2577 46.3982L41.2558 46.399C40.4351 46.7868 39.6167 47.2161 38.8169 47.6825L38.8173 47.6828C37.226 48.6211 35.7515 49.7718 34.4389 51.0596C32.7453 52.7331 31.3111 54.6488 30.1933 56.7153C31.6376 54.8665 33.234 53.1764 35.0116 51.7152L35.012 51.7148C36.3861 50.5891 37.8408 49.5867 39.4003 48.7527L39.6926 48.5985C41.1585 47.8356 42.7022 47.1906 44.26 46.4899C45.0806 46.119 45.9077 45.6977 46.7235 45.2443L47.3223 44.8761L47.3246 44.8742L47.3273 44.8726C47.5234 44.7559 47.7137 44.6322 47.898 44.499L47.9003 44.4975L47.903 44.4956L48.4869 44.0874C48.6685 43.9516 48.8409 43.808 49.0319 43.6532L49.302 43.428C50.6398 42.2889 51.7948 40.945 52.7052 39.4651L52.7068 39.4625C53.6904 37.8922 54.3999 36.1742 54.9074 34.4171C55.0478 33.9078 55.1726 33.3962 55.2818 32.8831Z" fill="#515839"/>
<path d="M28.6743 60.0982C26.665 57.0961 24.341 54.3884 21.5887 52.2202C20.2139 51.1387 18.7651 50.1823 17.2184 49.3874C15.6691 48.59 14.0325 47.9437 12.3431 47.2166C11.5024 46.8544 10.6537 46.4426 9.82085 45.997L9.20747 45.6348C9.00125 45.5175 8.80031 45.3924 8.60202 45.2543L8.00715 44.853C7.81151 44.7148 7.62643 44.5637 7.43872 44.4178C5.937 43.2398 4.63886 41.8196 3.62625 40.2403C2.60043 38.6689 1.8575 36.9515 1.32609 35.2029C0.813174 33.4438 0.48269 31.6535 0.392799 29.8527C0.945368 31.5701 1.5376 33.2509 2.29903 34.8432C2.47617 35.2446 2.68239 35.6329 2.87804 36.0238C2.97851 36.2166 3.08955 36.4068 3.1953 36.5971C3.29841 36.7899 3.40946 36.9776 3.52579 37.16C3.96996 37.9079 4.46172 38.622 4.99049 39.2995C5.51927 39.9771 6.09034 40.6182 6.70108 41.2124C7.01041 41.5068 7.32239 41.7987 7.65287 42.0645C7.98336 42.3303 8.30591 42.6118 8.66019 42.8463C9.33702 43.3545 10.0799 43.7819 10.8308 44.1936C11.5975 44.5898 12.3801 44.9624 13.2024 45.3116C14.0167 45.6739 14.8548 46.0205 15.6955 46.4035C16.5336 46.784 17.3717 47.2036 18.1887 47.6596C19.8226 48.5848 21.3402 49.721 22.6912 50.9954C25.3853 53.5571 27.4555 56.7025 28.6743 60.0982Z" fill="#515839"/>
<path d="M0.392799 29.8527C0.945368 31.5701 1.5376 33.2509 2.29903 34.8432C2.47617 35.2446 2.68239 35.6329 2.87804 36.0238C2.97851 36.2166 3.08955 36.4068 3.1953 36.5971C3.29841 36.7899 3.40946 36.9776 3.52579 37.16C3.96996 37.9079 4.46172 38.622 4.99049 39.2995C5.51927 39.9771 6.09034 40.6182 6.70108 41.2124C7.01041 41.5068 7.32239 41.7987 7.65287 42.0645C7.98336 42.3303 8.30591 42.6118 8.66019 42.8463C9.33702 43.3545 10.0799 43.7819 10.8308 44.1936C11.5975 44.5898 12.3801 44.9624 13.2024 45.3116C14.0167 45.6739 14.8548 46.0205 15.6955 46.4035C16.5336 46.784 17.3717 47.2036 18.1887 47.6596C19.8226 48.5848 21.3402 49.721 22.6912 50.9954C25.3853 53.5571 27.4555 56.7025 28.6743 60.0982C26.7278 57.1899 24.486 54.5581 21.8456 52.4252L21.5887 52.2202C20.2998 51.2063 18.9458 50.3022 17.5072 49.5383L17.2184 49.3874C16.0565 48.7894 14.8455 48.2762 13.5999 47.7504L12.3431 47.2166C11.5024 46.8544 10.6537 46.4426 9.82085 45.997L9.20747 45.6348C9.00125 45.5175 8.80031 45.3924 8.60202 45.2543L8.00715 44.853C7.81151 44.7148 7.62643 44.5637 7.43872 44.4178C5.937 43.2398 4.63886 41.8196 3.62625 40.2403C2.66453 38.7671 1.95137 37.1656 1.42811 35.5303L1.32609 35.2029C0.813174 33.4438 0.48269 31.6535 0.392799 29.8527ZM1.31189 33.5831C1.4261 34.0868 1.55634 34.5889 1.702 35.0887L1.8025 35.4106C2.28266 36.9112 2.92344 38.3774 3.77033 39.736L3.95522 40.0256L3.95676 40.0283C4.94498 41.5695 6.21318 42.9571 7.68106 44.1085C7.87817 44.2618 8.04841 44.4011 8.23381 44.532L8.82186 44.9286L8.82416 44.9302L8.82646 44.9321C8.96695 45.03 9.10939 45.1211 9.25494 45.2079L9.40147 45.2934L9.40454 45.295L9.40722 45.2965L10.0148 45.6552C10.8359 46.0942 11.6717 46.4995 12.4986 46.8558C14.1732 47.5765 15.8329 48.2324 17.3982 49.0381C18.9701 49.8459 20.4397 50.8168 21.8314 51.9116C23.6351 53.3325 25.2545 54.9798 26.7211 56.7836C25.5832 54.7701 24.1303 52.9059 22.4206 51.2802C21.0916 50.0268 19.5996 48.9101 17.9951 48.0016C17.189 47.5517 16.3614 47.1371 15.5332 46.7611C14.6903 46.377 13.8798 46.0428 13.0487 45.6732L12.7387 45.5393C12.019 45.2249 11.3281 44.8928 10.6504 44.5428L10.642 44.5382C9.89324 44.1275 9.13429 43.6913 8.43712 43.1695C8.06506 42.9224 7.71894 42.6215 7.40679 42.3705C7.06237 42.0934 6.73982 41.7918 6.43016 41.497L6.42709 41.494C5.8029 40.8867 5.22017 40.232 4.68098 39.5411C4.14506 38.8544 3.646 38.1302 3.19456 37.3711C3.0747 37.1831 2.95954 36.9888 2.85201 36.7881L2.69205 36.5034C2.63701 36.4052 2.58155 36.3047 2.52979 36.2054L2.52826 36.2023L2.52672 36.1996C2.33845 35.8235 2.12602 35.4219 1.94481 35.0128L1.80173 34.7086C1.63022 34.3374 1.46763 33.9619 1.31189 33.5831Z" fill="#515839"/>
<path d="M224.618 59.6396H222.596L230.428 41.5995H232.219L240 59.6396H237.952L235.956 54.9002H226.589L224.618 59.6396ZM227.28 53.2185H235.265L231.272 43.6379L227.28 53.2185Z" fill="#515839"/>
<path d="M212.162 56.9641H212.213V41.5995H214.056V59.6396H211.752L201.207 44.1221H201.156V59.6396H199.313V41.5995H201.617L212.162 56.9641Z" fill="#515839"/>
<path d="M175.378 59.6396H173.356L181.188 41.5995H182.98L190.76 59.6396H188.713L186.716 54.9002H177.349L175.378 59.6396ZM178.04 53.2185H186.025L182.033 43.6379L178.04 53.2185Z" fill="#515839"/>
<path d="M155.908 56.531H155.933L161.999 41.5995H164.814V59.6396H162.972V43.9692H162.92L156.368 59.6396H155.396L148.844 43.9692H148.792V59.6396H146.95V41.5995H149.765L155.908 56.531Z" fill="#515839"/>
<path d="M129.572 60.0982C128.207 60.0982 127.09 59.8689 126.219 59.4102C125.349 58.9346 124.658 58.3401 124.146 57.6266C123.634 56.9132 123.276 56.1403 123.071 55.3079C122.884 54.4586 122.79 53.6602 122.79 52.9128V41.5995H124.633V52.7089C124.633 53.4394 124.718 54.1528 124.889 54.8493C125.059 55.5287 125.332 56.1403 125.708 56.6839C126.1 57.2104 126.612 57.6436 127.243 57.9833C127.875 58.3061 128.651 58.4675 129.572 58.4675C130.494 58.4675 131.27 58.3061 131.901 57.9833C132.533 57.6436 133.036 57.2104 133.411 56.6839C133.804 56.1403 134.085 55.5287 134.256 54.8493C134.427 54.1528 134.512 53.4394 134.512 52.7089V41.5995H136.355V52.9128C136.355 53.6602 136.252 54.4586 136.048 55.3079C135.86 56.1403 135.51 56.9132 134.998 57.6266C134.486 58.3401 133.787 58.9346 132.9 59.4102C132.029 59.8689 130.92 60.0982 129.572 60.0982Z" fill="#515839"/>
<path d="M113.176 50.6195C113.176 51.9954 112.937 53.261 112.46 54.4161C111.982 55.5712 111.316 56.5734 110.463 57.4227C109.627 58.2551 108.629 58.9091 107.469 59.3847C106.326 59.8604 105.08 60.0982 103.732 60.0982C102.384 60.0982 101.13 59.8604 99.9697 59.3847C98.8265 58.9091 97.8283 58.2551 96.9752 57.4227C96.1391 56.5734 95.4822 55.5712 95.0044 54.4161C94.5267 53.261 94.2878 51.9954 94.2878 50.6195C94.2878 49.2436 94.5267 47.978 95.0044 46.8229C95.4822 45.6678 96.1391 44.6741 96.9752 43.8417C97.8283 42.9924 98.8265 42.3299 99.9697 41.8543C101.13 41.3786 102.384 41.1408 103.732 41.1408C105.08 41.1408 106.326 41.3786 107.469 41.8543C108.629 42.3299 109.627 42.9924 110.463 43.8417C111.316 44.6741 111.982 45.6678 112.46 46.8229C112.937 47.978 113.176 49.2436 113.176 50.6195ZM111.231 50.6195C111.231 49.5663 111.06 48.5641 110.719 47.6128C110.378 46.6616 109.883 45.8292 109.235 45.1157C108.586 44.3853 107.793 43.8078 106.855 43.3831C105.933 42.9584 104.892 42.7461 103.732 42.7461C102.572 42.7461 101.522 42.9584 100.584 43.3831C99.6626 43.8078 98.8777 44.3853 98.2293 45.1157C97.5809 45.8292 97.0861 46.6616 96.7448 47.6128C96.4036 48.5641 96.2329 49.5663 96.2329 50.6195C96.2329 51.6727 96.4036 52.6749 96.7448 53.6262C97.0861 54.5774 97.5809 55.4098 98.2293 56.1232C98.8777 56.8367 99.6626 57.4058 100.584 57.8304C101.522 58.2551 102.572 58.4674 103.732 58.4674C104.892 58.4674 105.933 58.2551 106.855 57.8304C107.793 57.4058 108.586 56.8367 109.235 56.1232C109.883 55.4098 110.378 54.5774 110.719 53.6262C111.06 52.6749 111.231 51.6727 111.231 50.6195Z" fill="#515839"/>
<path d="M81.3619 59.6396H79.5192V43.2302H73.4533V41.5995H87.4277V43.2302H81.3619V59.6396Z" fill="#515839"/>
<path d="M145.788 20.2633C145.532 19.9086 145.203 19.626 144.803 19.4154C144.402 19.1937 143.918 19.0829 143.35 19.0829C143.06 19.0829 142.765 19.1272 142.465 19.2159C142.164 19.3045 141.891 19.4431 141.647 19.6315C141.402 19.8088 141.201 20.036 141.045 20.3131C140.901 20.5902 140.828 20.9172 140.828 21.294C140.828 21.6708 140.901 21.9812 141.045 22.225C141.19 22.4689 141.379 22.6794 141.613 22.8568C141.858 23.023 142.131 23.1616 142.431 23.2724C142.743 23.3832 143.066 23.4941 143.4 23.6049C143.812 23.7379 144.224 23.882 144.636 24.0372C145.059 24.1923 145.437 24.3974 145.771 24.6523C146.105 24.8961 146.378 25.212 146.59 25.5999C146.801 25.9767 146.907 26.4589 146.907 27.0463C146.907 27.6337 146.79 28.1436 146.556 28.5758C146.333 28.997 146.038 29.3461 145.671 29.6232C145.315 29.9003 144.903 30.1053 144.435 30.2383C143.979 30.3713 143.517 30.4378 143.049 30.4378C142.693 30.4378 142.337 30.399 141.98 30.3214C141.624 30.2549 141.285 30.1497 140.962 30.0056C140.639 29.8615 140.338 29.6786 140.06 29.4569C139.782 29.2353 139.537 28.9804 139.325 28.6922L140.361 27.9274C140.617 28.3486 140.973 28.7033 141.429 28.9914C141.897 29.2685 142.443 29.4071 143.066 29.4071C143.367 29.4071 143.673 29.3627 143.984 29.2741C144.296 29.1743 144.574 29.0302 144.819 28.8418C145.075 28.6423 145.281 28.404 145.437 28.1269C145.604 27.8388 145.688 27.5063 145.688 27.1294C145.688 26.7193 145.604 26.3813 145.437 26.1153C145.281 25.8382 145.07 25.611 144.803 25.4337C144.536 25.2452 144.229 25.0901 143.884 24.9682C143.539 24.8462 143.177 24.7243 142.799 24.6024C142.409 24.4805 142.025 24.3419 141.647 24.1868C141.268 24.0316 140.928 23.8321 140.628 23.5883C140.327 23.3334 140.082 23.023 139.893 22.6573C139.715 22.2915 139.626 21.8426 139.626 21.3106C139.626 20.7454 139.737 20.2577 139.96 19.8476C140.194 19.4375 140.494 19.0995 140.862 18.8335C141.229 18.5675 141.635 18.3735 142.081 18.2516C142.526 18.1297 142.966 18.0687 143.4 18.0687C144.202 18.0687 144.886 18.2128 145.454 18.501C146.022 18.7781 146.45 19.1106 146.74 19.4985L145.788 20.2633Z" fill="#515839"/>
<path d="M134.688 28.3929H134.721V18.368H135.924V30.1385H134.421L127.54 20.0139H127.507V30.1385H126.305V18.368H127.808L134.688 28.3929Z" fill="#515839"/>
<path d="M122.167 30.1385H120.965V18.368H122.167V30.1385Z" fill="#515839"/>
<path d="M107.325 18.368H111.249C111.984 18.368 112.719 18.4899 113.454 18.7337C114.2 18.9776 114.867 19.3489 115.458 19.8476C116.059 20.3353 116.543 20.9504 116.91 21.693C117.278 22.4245 117.461 23.2779 117.461 24.2533C117.461 25.2397 117.278 26.0986 116.91 26.8302C116.543 27.5617 116.059 28.1768 115.458 28.6755C114.867 29.1632 114.2 29.529 113.454 29.7728C112.719 30.0166 111.984 30.1385 111.249 30.1385H107.325V18.368ZM108.527 29.0745H110.915C111.806 29.0745 112.58 28.936 113.237 28.6589C113.905 28.3818 114.456 28.0216 114.89 27.5783C115.324 27.1239 115.647 26.6085 115.858 26.0321C116.081 25.4558 116.192 24.8628 116.192 24.2533C116.192 23.6437 116.081 23.0507 115.858 22.4744C115.647 21.898 115.324 21.3882 114.89 20.9449C114.456 20.4904 113.905 20.1247 113.237 19.8476C112.58 19.5705 111.806 19.432 110.915 19.432H108.527V29.0745Z" fill="#515839"/>
<path d="M97.5282 30.1385H96.3258V18.368H99.7993C100.378 18.368 100.913 18.4234 101.402 18.5342C101.903 18.6451 102.332 18.8279 102.688 19.0829C103.056 19.3267 103.34 19.6481 103.54 20.0471C103.74 20.4461 103.841 20.9338 103.841 21.5101C103.841 21.9424 103.763 22.3358 103.607 22.6905C103.451 23.0452 103.239 23.3555 102.972 23.6215C102.705 23.8764 102.388 24.0815 102.02 24.2366C101.653 24.3918 101.252 24.4916 100.818 24.5359L104.275 30.1385H102.805L99.5321 24.6356H97.5282V30.1385ZM97.5282 23.6049H99.6156C100.584 23.6049 101.33 23.4331 101.853 23.0895C102.377 22.7348 102.638 22.2084 102.638 21.5101C102.638 21.1222 102.566 20.7952 102.421 20.5292C102.276 20.2632 102.076 20.0471 101.82 19.8809C101.564 19.7146 101.252 19.5927 100.885 19.5151C100.517 19.4375 100.111 19.3987 99.6657 19.3987H97.5282V23.6049Z" fill="#515839"/>
<path d="M83.5473 30.1385H82.228L87.338 18.368H88.507L93.5836 30.1385H92.2477L90.9451 27.0463H84.8331L83.5473 30.1385ZM85.284 25.949H90.4942L87.8891 19.698L85.284 25.949Z" fill="#515839"/>
<path d="M74.5722 27.7445C74.6613 28.21 74.8672 28.6035 75.1901 28.9249C75.5241 29.2353 75.9583 29.3904 76.4926 29.3904C76.9046 29.3904 77.2441 29.3184 77.5113 29.1743C77.7785 29.0191 77.99 28.8141 78.1459 28.5592C78.3129 28.3042 78.4242 28.0161 78.4799 27.6947C78.5467 27.3622 78.5801 27.0186 78.5801 26.6639V18.368H79.7824V26.747C79.7824 27.1349 79.7379 27.545 79.6488 27.9773C79.5709 28.4095 79.415 28.8085 79.1812 29.1743C78.9474 29.54 78.6246 29.8448 78.2127 30.0887C77.8008 30.3214 77.2719 30.4378 76.6262 30.4378C75.769 30.4378 75.0621 30.2161 74.5054 29.7728C73.9488 29.3184 73.5981 28.742 73.4533 28.0438L74.5722 27.7445Z" fill="#515839"/>
</svg>
