<svg width="47" height="51" viewBox="0 0 47 51" fill="none" xmlns="http://www.w3.org/2000/svg">
<path d="M45.217 24.424C45.2169 11.9402 35.5443 1.83745 23.5 1.83745C11.4557 1.83746 1.78305 11.9402 1.783 24.424V48.946L45.217 49.1578V24.424ZM47 50.0813C47 50.3257 46.9057 50.5602 46.7377 50.7326C46.5696 50.905 46.3416 51.0011 46.1044 51L0.887442 50.7793C0.396733 50.7769 0 50.3663 0 49.8606V24.424C4.90898e-05 10.9438 10.4532 1.28766e-05 23.5 0C36.5468 0 47 10.9438 47 24.424V50.0813Z" fill="#4D5531"/>
<path d="M23.705 50.5227C23.3424 47.9493 23.1483 45.3758 23.0054 42.8002C22.871 40.2267 22.8006 37.6511 22.79 35.0754C22.7793 32.4998 22.8262 29.9263 22.9414 27.3507C23.063 24.775 23.2358 22.1994 23.5813 19.6237C23.946 22.1971 24.1401 24.7706 24.283 27.3462C24.4174 29.9197 24.4878 32.4953 24.4963 35.071C24.5048 37.6467 24.4579 40.2201 24.3427 42.7958C24.2211 45.3714 24.0484 47.9471 23.705 50.5227Z" fill="#4D5531"/>
<path d="M23.9187 50.5712C23.795 49.5339 23.7864 48.4878 23.8056 47.4416C23.8398 46.3977 23.9187 45.3515 24.0659 44.312C24.3495 42.2351 24.8486 40.1715 25.6506 38.216C26.4397 36.2606 27.5574 34.4088 29.044 32.9147C29.7905 32.1731 30.6309 31.5374 31.5267 31.021C32.4395 30.531 33.4057 30.1735 34.3932 29.9704C33.4761 30.4096 32.6016 30.8864 31.8039 31.4823C31.0105 32.0826 30.296 32.7668 29.6455 33.5106C28.3721 35.029 27.3846 36.7814 26.6338 38.6464C25.866 40.507 25.3243 42.4713 24.8827 44.4665C24.4583 46.4661 24.1384 48.501 23.9187 50.5712Z" fill="#4D5531"/>
<path d="M23.4897 50.3349C23.253 48.2669 22.9181 46.2364 22.4766 44.239C22.0202 42.2482 21.4613 40.2861 20.6786 38.4344C19.9107 36.576 18.9104 34.8325 17.6264 33.325C16.9695 32.5857 16.2486 31.9081 15.4509 31.3144C14.6489 30.7273 13.7702 30.255 12.8488 29.8246C13.8384 30.021 14.8068 30.3698 15.7239 30.8509C16.624 31.3585 17.4686 31.9875 18.2215 32.7225C19.7188 34.2034 20.8535 36.0464 21.6576 37.9952C22.4745 39.944 22.9906 42.0032 23.2913 44.0779C23.447 45.1152 23.5345 46.1614 23.5772 47.2053C23.607 48.2493 23.607 49.2954 23.4897 50.3349Z" fill="#4D5531"/>
<path d="M42.6697 10.6619C40.6635 13.7517 37.7938 16.2974 34.5011 18.046C31.2035 19.7945 27.4655 20.7207 23.7276 20.7359C19.9896 20.7536 16.2442 19.8603 12.9317 18.1371C9.62421 16.4163 6.73478 13.8934 4.70623 10.8188C7.36066 13.3316 10.3441 15.3484 13.5799 16.6896C16.8082 18.0409 20.2617 18.7216 23.7177 18.7115C27.1761 18.6963 30.6246 17.9878 33.8406 16.6086C37.0714 15.2422 40.0376 13.1975 42.6697 10.6619Z" fill="#4D5531"/>
<path d="M23.5965 50.3019C24.5584 47.4173 26.2071 44.7401 28.3656 42.5529C29.447 41.4648 30.6627 40.4915 31.9766 39.6969C32.6335 39.3041 33.3053 38.9421 33.9793 38.6155C34.6533 38.2844 35.3273 37.9865 35.9821 37.6731C36.6433 37.3729 37.2725 37.0507 37.8889 36.7108C38.4925 36.3577 39.0854 35.9913 39.6293 35.5565C39.913 35.3556 40.1711 35.1151 40.4356 34.8877C40.7022 34.6604 40.9517 34.411 41.197 34.1594C41.6854 33.6518 42.1419 33.1066 42.5642 32.5284C42.9865 31.9501 43.3768 31.3432 43.7309 30.7075C43.8247 30.5508 43.9121 30.3919 43.9932 30.2286C44.0764 30.0653 44.1638 29.9064 44.2449 29.7408C44.3984 29.4076 44.5627 29.0787 44.7035 28.7366C45.3049 27.3837 45.772 25.9557 46.2071 24.499C46.1453 26.0241 45.8915 27.5426 45.4905 29.0346C45.0724 30.5199 44.4859 31.9788 43.669 33.3163C42.8628 34.6604 41.8262 35.8721 40.6211 36.8807C40.4697 37.0065 40.3204 37.1345 40.1647 37.2537L39.6869 37.5958C39.5291 37.7128 39.367 37.8209 39.2006 37.9225L38.7079 38.2337C38.0382 38.6155 37.3578 38.9708 36.6817 39.2842C35.323 39.911 34.0071 40.4716 32.7615 41.1558C31.518 41.8378 30.3556 42.6588 29.255 43.5836C27.056 45.4375 25.1983 47.7461 23.5965 50.3019Z" fill="#4D5531"/>
<path d="M23.9162 50.3019C22.2952 47.7594 20.4204 45.4662 18.2001 43.63C17.091 42.714 15.9221 41.904 14.6744 41.2309C13.4245 40.5555 12.1043 40.0082 10.7414 39.3924C10.0631 39.0856 9.37847 38.7369 8.70662 38.3595L8.21179 38.0527C8.04542 37.9534 7.88332 37.8474 7.72336 37.7305L7.24345 37.3906C7.08562 37.2736 6.93632 37.1456 6.78489 37.022C5.57341 36.0244 4.52617 34.8215 3.70928 33.484C2.88172 32.1532 2.28238 30.6987 1.85367 29.2178C1.43989 27.728 1.17328 26.2117 1.10076 24.6866C1.54653 26.1411 2.0243 27.5647 2.63857 28.9132C2.78147 29.2531 2.94784 29.5819 3.10567 29.913C3.18672 30.0763 3.2763 30.2374 3.36162 30.3986C3.4448 30.5619 3.53438 30.7208 3.62822 30.8753C3.98655 31.5087 4.38327 32.1134 4.80984 32.6873C5.23642 33.2611 5.69712 33.8041 6.18982 34.3073C6.43936 34.5567 6.69104 34.8039 6.95765 35.029C7.22426 35.2541 7.48447 35.4925 7.77028 35.6911C8.3163 36.1215 8.91563 36.4835 9.52137 36.8322C10.1399 37.1677 10.7712 37.4833 11.4346 37.779C12.0915 38.0858 12.7676 38.3793 13.4459 38.7038C14.122 39.026 14.7981 39.3813 15.4572 39.7676C16.7753 40.5511 17.9996 41.5134 19.0895 42.5926C21.2629 44.7622 22.9329 47.4261 23.9162 50.3019Z" fill="#4D5531"/>
</svg>
